<svg xmlns="http://www.w3.org/2000/svg" width="512" height="512" fill="none"><mask id="b" fill="#fff"><path d="M0 160c0-56.005 0-84.008 10.9-105.4a100 100 0 0 1 43.7-43.7C75.993 0 103.996 0 160 0h192c56.005 0 84.008 0 105.399 10.9a100.006 100.006 0 0 1 43.702 43.7C512 75.993 512 103.996 512 160v192c0 56.005 0 84.008-10.899 105.399a100.01 100.01 0 0 1-43.702 43.702C436.008 512 408.005 512 352 512H160c-56.005 0-84.008 0-105.4-10.899a100.006 100.006 0 0 1-43.7-43.702C0 436.008 0 408.005 0 352V160Z"/></mask><path fill="url(#a)" d="M0 160c0-56.005 0-84.008 10.9-105.4a100 100 0 0 1 43.7-43.7C75.993 0 103.996 0 160 0h192c56.005 0 84.008 0 105.399 10.9a100.006 100.006 0 0 1 43.702 43.7C512 75.993 512 103.996 512 160v192c0 56.005 0 84.008-10.899 105.399a100.01 100.01 0 0 1-43.702 43.702C436.008 512 408.005 512 352 512H160c-56.005 0-84.008 0-105.4-10.899a100.006 100.006 0 0 1-43.7-43.702C0 436.008 0 408.005 0 352V160Z"/><path fill="#fff" fill-opacity=".17" d="M0 100C0 43.115 46.115-3 103-3h306c56.885 0 103 46.115 103 103 0-53.572-44.772-97-100-97H100C44.772 3 0 46.428 0 100Zm512 412H0h512ZM0 512V0v512ZM512 0v512V0Z" mask="url(#b)"/><g filter="url(#c)"><rect width="129" height="368" x="191" y="95" fill="url(#d)" rx="5"/><path fill="#583300" d="M283 165h37v8h-37zM283 193h37v8h-37zM283 221h37v8h-37zM283 249h37v8h-37zM283 305h37v8h-37zM283 333h37v8h-37zM283 361h37v8h-37zM283 389h37v8h-37zM265 277h55v8h-55v-8ZM265 417h55v8h-55v-8ZM265 137h55v8h-55z"/><path fill="url(#e)" d="M23.753 251.289c-1.713-3.328.703-7.289 4.445-7.289h455.703c3.719 0 6.137 3.915 4.471 7.24l-104.742 209a5 5 0 0 1-4.47 2.76H135.811a5 5 0 0 1-4.446-2.711l-107.612-209Z" opacity=".7"/></g><defs><linearGradient id="a" x1="256" x2="256" y1="0" y2="512" gradientUnits="userSpaceOnUse"><stop stop-color="#2F3437"/><stop offset="1" stop-color="#1D2325"/></linearGradient><linearGradient id="d" x1="320" x2="191" y1="316" y2="316" gradientUnits="userSpaceOnUse"><stop stop-color="#FEB93B"/><stop offset="1" stop-color="#FFC472"/></linearGradient><linearGradient id="e" x1="256" x2="256" y1="244" y2="463" gradientUnits="userSpaceOnUse"><stop stop-color="#3790C0"/><stop offset="1" stop-color="#3C9998"/></linearGradient><filter id="c" width="488.316" height="390.6" x="16.892" y="91.7" color-interpolation-filters="sRGB" filterUnits="userSpaceOnUse"><feFlood flood-opacity="0" result="BackgroundImageFix"/><feColorMatrix in="SourceAlpha" result="hardAlpha" values="0 0 0 0 0 0 0 0 0 0 0 0 0 0 0 0 0 0 127 0"/><feOffset dx="5" dy="8"/><feGaussianBlur stdDeviation="5.65"/><feComposite in2="hardAlpha" operator="out"/><feColorMatrix values="0 0 0 0 0 0 0 0 0 0 0 0 0 0 0 0 0 0 0.2 0"/><feBlend in2="BackgroundImageFix" result="effect1_dropShadow_1_4"/><feBlend in="SourceGraphic" in2="effect1_dropShadow_1_4" result="shape"/></filter></defs></svg>